# xmcd CD database file
#
# Track frame offsets:
#	150
#	20077
#	33295
#	51350
#	68977
#	82885
#	103555
#	113330
#	121057
#	137845
#	152965
#	163040
#
# Disc length: 2412 seconds
#
# Revision: 0
# Processed by: cddbd v1.5.1PL0 Copyright (c) Steve Scherf et al.
# Submitted via: CDex 1.51
#
DISCID=96096a0c
DTITLE=snow mobiles - 銀の烏と小さな熊
DYEAR=1998
DGENRE=Pop
TTITLE0=敬虔のうた
TTITLE1=小夜わたり
TTITLE2=美空とんび
TTITLE3=雨
TTITLE4=夕映えときみ
TTITLE5=二百廿日
TTITLE6=小作品2（これから）
TTITLE7=向日葵の坂
TTITLE8=うらら
TTITLE9=きみに会えて
TTITLE10=小作品1（雪上歩行）
TTITLE11=おもかげ
EXTD=YEAR: 1998
EXTT0=
EXTT1=
EXTT2=
EXTT3=
EXTT4=
EXTT5=
EXTT6=
EXTT7=
EXTT8=
EXTT9=
EXTT10=
EXTT11=
PLAYORDER=
